<svg width="45" height="43" viewBox="0 0 45 43" fill="none" xmlns="http://www.w3.org/2000/svg">
<path d="M22.5 32C13.6766 32 6.5 24.8234 6.5 16C6.5 7.17665 13.6766 0 22.5 0C31.3234 0 38.5 7.17665 38.5 16C38.5 24.8234 31.3234 32 22.5 32Z" fill="url(#paint0_linear_9358_10132)"/>
<g filter="url(#filter0_d_9358_10132)">
<path fill-rule="evenodd" clip-rule="evenodd" d="M29.5738 11.6395C30.0605 12.112 30.0722 12.8896 29.5997 13.3764L21.4915 21.7302C21.1045 22.129 20.4667 22.1357 20.0713 21.7454L15.5723 17.3031C15.0896 16.8265 15.0847 16.0488 15.5613 15.5661C16.0379 15.0834 16.8156 15.0785 17.2983 15.5551L20.7519 18.9651L27.8369 11.6654C28.3093 11.1786 29.087 11.167 29.5738 11.6395Z" fill="url(#paint1_linear_9358_10132)"/>
</g>
<defs>
<filter id="filter0_d_9358_10132" x="0.207031" y="1.2926" width="44.7383" height="40.7412" filterUnits="userSpaceOnUse" color-interpolation-filters="sRGB">
<feFlood flood-opacity="0" result="BackgroundImageFix"/>
<feColorMatrix in="SourceAlpha" type="matrix" values="0 0 0 0 0 0 0 0 0 0 0 0 0 0 0 0 0 0 127 0" result="hardAlpha"/>
<feOffset dy="5"/>
<feGaussianBlur stdDeviation="7.5"/>
<feColorMatrix type="matrix" values="0 0 0 0 0 0 0 0 0 0 0 0 0 0 0 0 0 0 0.27 0"/>
<feBlend mode="normal" in2="BackgroundImageFix" result="effect1_dropShadow_9358_10132"/>
<feBlend mode="normal" in="SourceGraphic" in2="effect1_dropShadow_9358_10132" result="shape"/>
</filter>
<linearGradient id="paint0_linear_9358_10132" x1="5.34123" y1="26.4" x2="46.1613" y2="25.972" gradientUnits="userSpaceOnUse">
<stop stop-color="#008DF3"/>
<stop offset="1" stop-color="#01FF94"/>
</linearGradient>
<linearGradient id="paint1_linear_9358_10132" x1="22.5721" y1="11.0356" x2="22.5721" y2="22.5754" gradientUnits="userSpaceOnUse">
<stop stop-color="#FDFEFF"/>
<stop offset="0.9964" stop-color="#ECF0F5"/>
</linearGradient>
</defs>
</svg>
